:FULLY-SPECIFIED
:FORCE-ALL-JOINTS-BE-3DOF
:DEGREES
2039
root -3.52154 15.0593 23.1065 898.767 -0.406257 173.791
lfemur -19.5614 17.535 -15.772
ltibia 59.6106 0 0
lfoot -20.0504 28.4837 0
ltoes -31.0392 0 0
rfemur -33.1134 -6.69104 5.42839
rtibia 57.0439 0 0
rfoot 17.1687 -11.8479 0
rtoes 7.96377 0 0
lowerback 12.5582 -0.248937 -5.66467
upperback -0.146303 -1.19059 2.33844
thorax -7.20371 -0.340586 5.88584
lowerneck -4.26256 -1.20042 -4.52742
upperneck 7.01585 -1.61066 -1.25613
head 3.3031 -0.991897 0.0941486
lclavicle -6.1337e-14 4.27622e-14 0
lhumerus -37.3123 6.17804 96.7295
lradius 47.8884 0 0
lwrist 4.45185 0 0
lhand -27.1111 34.8576 0
lfingers 7.12502 0 0
lthumb -0.526597 -777.074 0
rclavicle -6.1337e-14 4.27622e-14 0
rhumerus -13.8736 -8.55033 -97.6816
rradius 57.0427 0 0
rwrist 9.73367 0 0
rhand 1.43257 -396.804 0
rfingers 7.12502 0 0
rthumb 26.9602 295.115 0
2040
root -3.52755 15.048 22.9003 898.304 -1.73172 173.651
lfemur -18.2371 16.6969 -16.086
ltibia 59.1907 0 0
lfoot -20.6453 28.2977 0
ltoes -31.7434 0 0
rfemur -33.856 -6.90731 5.28713
rtibia 55.8175 0 0
rfoot 18.0518 -10.8629 0
rtoes 8.12791 0 0
lowerback 12.7233 -0.108559 -5.88147
upperback -0.0765964 -1.05725 2.23165
thorax -7.23524 -0.274375 5.87171
lowerneck -4.20248 -1.71963 -4.90896
upperneck 7.33298 -2.31657 -0.930614
head 3.40301 -1.35054 0.224946
lclavicle -6.31798e-14 3.93135e-14 0
lhumerus -39.4792 5.04892 97.8572
lradius 51.2702 0 0
lwrist 8.0377 0 0
lhand -27.0557 34.5578 0
lfingers 7.12502 0 0
lthumb -0.473144 -772.618 0
rclavicle -6.31798e-14 3.93135e-14 0
rhumerus -9.46677 -9.5605 -97.6363
rradius 53.8838 0 0
rwrist 15.0451 0 0
rhand 1.16432 -396.603 0
rfingers 7.12502 0 0
rthumb 26.7032 295.28 0
2041
root -3.53016 15.0354 22.6864 897.836 -3.07668 173.522
lfemur -16.8799 15.8078 -16.4311
ltibia 58.7535 0 0
lfoot -21.2594 28.0837 0
ltoes -32.485 0 0
rfemur -34.6267 -7.13111 5.16117
rtibia 54.5355 0 0
rfoot 18.9339 -9.84539 0
rtoes 8.2719 0 0
lowerback 12.8985 0.0399882 -6.0988
upperback -0.00348497 -0.913498 2.12096
thorax -7.26955 -0.203331 5.85189
lowerneck -4.13672 -2.25532 -5.30254
upperneck 7.66144 -3.04498 -0.592766
head 3.507 -1.72059 0.360492
lclavicle -6.50168e-14 3.5592e-14 0
lhumerus -41.6642 3.81978 98.9842
lradius 54.888 0 0
lwrist 11.8206 0 0
lhand -26.9878 34.2546 0
lfingers 7.12502 0 0
lthumb -0.407571 -767.277 0
rclavicle -6.50168e-14 3.5592e-14 0
rhumerus -4.83983 -10.5757 -97.563
rradius 50.5964 0 0
rwrist 20.5754 0 0
rhand 0.875867 -396.396 0
rfingers 7.12502 0 0
rthumb 26.4269 295.448 0
2042
root -3.52923 15.0215 22.4645 897.363 -4.44078 173.404
lfemur -15.4896 14.8663 -16.8083
ltibia 58.2987 0 0
lfoot -21.8927 27.8408 0
ltoes -33.2648 0 0
rfemur -35.4259 -7.36247 5.0513
rtibia 53.1967 0 0
rfoot 19.8139 -8.79509 0
rtoes 8.3948 0 0
lowerback 13.0841 0.19691 -6.31646
upperback 0.0730959 -0.759037 2.00629
thorax -7.3067 -0.127314 5.82616
lowerneck -4.06512 -2.80772 -5.70831
upperneck 8.00135 -3.79618 -0.242344
head 3.61511 -2.10217 0.500875
lclavicle -6.68456e-14 3.15902e-14 0
lhumerus -43.8664 2.48771 100.11
lradius 58.7481 0 0
lwrist 15.8051 0 0
lhand -26.9068 33.9483 0
lfingers 7.12502 0 0
lthumb -0.329369 -761.022 0
rclavicle -6.68456e-14 3.15902e-14 0
rhumerus 0.0121511 -11.5953 -97.4604
rradius 47.1781 0 0
rwrist 26.3283 0 0
rhand 0.566657 -396.182 0
rfingers 7.12502 0 0
rthumb 26.1306 295.62 0
2043
root -3.52462 15.0065 22.2344 896.884 -5.8237 173.297
lfemur -14.0662 13.8712 -17.2185
ltibia 57.8263 0 0
lfoot -22.5454 27.5678 0
ltoes -34.0838 0 0
rfemur -36.2541 -7.60142 4.9583
rtibia 51.8003 0 0
rfoot 20.6909 -7.71154 0
rtoes 8.4957 0 0
lowerback 13.2804 0.362415 -6.53427
upperback 0.153211 -0.593558 1.88757
thorax -7.34677 -0.0461851 5.79427
lowerneck -3.98751 -3.37706 -6.12641
upperneck 8.35283 -4.57046 0.120894
head 3.72743 -2.49545 0.646185
lclavicle -6.8664e-14 2.73005e-14 0
lhumerus -46.085 1.04976 101.233
lradius 62.8568 0 0
lwrist 19.9956 0 0
lhand -26.8122 33.6395 0
lfingers 7.12502 0 0
lthumb -0.23803 -753.825 0
rclavicle -6.8664e-14 2.73005e-14 0
rhumerus 5.09404 -12.6183 -97.3274
rradius 43.6268 0 0
rwrist 32.3072 0 0
rhand 0.236114 -395.963 0
rfingers 7.12502 0 0
rthumb 25.814 295.794 0
2044
root -3.5162 14.9901 21.996 896.401 -7.2251 173.202
lfemur -12.6094 12.8212 -17.6624
ltibia 57.336 0 0
lfoot -23.2176 27.2639 0
ltoes -34.9427 0 0
rfemur -37.1118 -7.848 4.88296
rtibia 50.3451 0 0
rfoot 21.5639 -6.59435 0
rtoes 8.57369 0 0
lowerback 13.4874 0.536708 -6.75203
upperback 0.236927 -0.416754 1.76476
thorax -7.38984 0.0401937 5.75601
lowerneck -3.9037 -3.96354 -6.557
upperneck 8.71602 -5.36813 0.49719
head 3.84399 -2.90058 0.79651
lclavicle -7.04697e-14 2.27153e-14 0
lhumerus -48.3189 -0.496978 102.352
lradius 67.2203 0 0
lwrist 24.3967 0 0
lhand -26.7034 33.3284 0
lfingers 7.12502 0 0
lthumb -0.133045 -745.658 0
rclavicle -7.04697e-14 2.27153e-14 0
rhumerus 10.4107 -13.6442 -97.1626
rradius 39.9401 0 0
rwrist 38.5158 0 0
rhand -0.116333 -395.737 0
rfingers 7.12502 0 0
rthumb 25.4763 295.973 0
2045
root -3.50383 14.9723 21.7491 895.913 -8.64464 173.119
lfemur -11.119 11.715 -18.1411
ltibia 56.8276 0 0
lfoot -23.9094 26.928 0
ltoes -35.8425 0 0
rfemur -37.9996 -8.10224 4.82607
rtibia 48.8303 0 0
rfoot 22.4319 -5.44311 0
rtoes 8.62783 0 0
lowerback 13.7056 0.719999 -6.96956
upperback 0.324307 -0.228318 1.63777
thorax -7.43598 0.131961 5.71113
lowerneck -3.81352 -4.5674 -7.00023
upperneck 9.09103 -6.18949 0.886783
head 3.96486 -3.3177 0.95194
lclavicle -7.22607e-14 1.78271e-14 0
lhumerus -50.5672 -2.15544 103.468
lradius 71.8449 0 0
lwrist 29.0127 0 0
lhand -26.58 33.0155 0
lfingers 7.12502 0 0
lthumb -0.0139048 -736.491 0
rclavicle -7.22607e-14 1.78271e-14 0
rhumerus 15.9671 -14.6722 -96.9648
rradius 36.1158 0 0
rwrist 44.9576 0 0
rhand -0.491256 -395.505 0
rfingers 7.12502 0 0
rthumb 25.1171 296.154 0
2046
root -3.48739 14.9532 21.4934 895.421 -10.082 173.049
lfemur -9.59497 10.5514 -18.6553
ltibia 56.3011 0 0
lfoot -24.6208 26.559 0
ltoes -36.7839 0 0
rfemur -38.9178 -8.36418 4.78842
rtibia 47.2547 0 0
rfoot 23.2938 -4.25742 0
rtoes 8.65723 0 0
lowerback 13.935 0.912492 -7.18667
upperback 0.415418 -0.0279439 1.50653
thorax -7.48525 0.229256 5.65942
lowerneck -3.7168 -5.18884 -7.45625
upperneck 9.47799 -7.03483 1.28992
head 4.0901 -3.74695 1.11256
lclavicle -7.40346e-14 1.26283e-14 0
lhumerus -52.829 -3.92856 104.578
lradius 76.7367 0 0
lwrist 33.8482 0 0
lhand -26.4414 32.7011 0
lfingers 7.12502 0 0
lthumb 0.119899 -726.295 0
rclavicle -7.40346e-14 1.26283e-14 0
rhumerus 21.768 -15.7014 -96.7328
rradius 32.1516 0 0
rwrist 51.6364 0 0
rhand -0.889224 -395.267 0
rfingers 7.12502 0 0
rthumb 24.7359 296.338 0
2047
root -3.46673 14.9327 21.2289 894.924 -11.5368 172.992
lfemur -8.03704 9.32897 -19.2061
ltibia 55.7562 0 0
lfoot -25.352 26.1559 0
ltoes -37.7679 0 0
rfemur -39.867 -8.63386 4.7708
rtibia 45.6174 0 0
rfoot 24.1489 -3.03686 0
rtoes 8.66094 0 0
lowerback 14.176 1.1144 -7.40318
upperback 0.510323 0.184675 1.371
thorax -7.53774 0.332217 5.60063
lowerneck -3.61336 -5.82808 -7.92522
upperneck 9.87702 -7.90446 1.70683
head 4.21976 -4.1885 1.27847
lclavicle -7.57892e-14 7.11143e-15 0
lhumerus -55.1035 -5.81926 105.683
lradius 81.902 0 0
lwrist 38.9078 0 0
lhand -26.2871 32.3857 0
lfingers 7.12502 0 0
lthumb 0.268874 -715.044 0
rclavicle -7.57892e-14 7.11143e-15 0
rhumerus 27.8183 -16.7312 -96.4652
rradius 28.0452 0 0
rwrist 58.5557 0 0
rhand -1.31081 -395.022 0
rfingers 7.12502 0 0
rthumb 24.332 296.526 0
